# xmcd CD database file
#
# Track frame offsets:
#	150
#	20210
#	39560
#	70632
#	94727
#	119475
#	135140
#	158552
#	177645
#	196730
#	235775
#
# Disc length: 4440 seconds
#
# Revision: 1
# Processed by: cddbd v1.5.2PL0 Copyright (c) Steve Scherf et al.
# Submitted via: CDex 1.70beta2
#
DISCID=8a11560b
DTITLE=長渕剛 - Hey ANIKI !　長渕　剛トリビュート
DYEAR=2004
DGENRE=Folk
TTITLE0=ろくなもんじゃねえ／cune
TTITLE1=裸足のまんまで (Remix)／般若（from 妄走族）
TTITLE2=東京青春朝焼物語／the youth
TTITLE3=とんぼ／LISA feat. HOME GROWN
TTITLE4=Myself／中尾諭介（from In the Soup）
TTITLE5=乾杯／ヒューマンロスト
TTITLE6=Don't Cry My Love／A･cappellers
TTITLE7=JEEP (Remix)／DJ MAKIDAI (from EXILE) feat. RATHER UNIQUE
TTITLE8=乾杯／押尾コータロー
TTITLE9=しあわせになろうよ '04／長渕　剛＆All Cast feat. ZEEBRA
TTITLE10=DATA
EXTD=YEAR: 2004
EXTT0=
EXTT1=
EXTT2=
EXTT3=
EXTT4=
EXTT5=
EXTT6=
EXTT7=
EXTT8=
EXTT9=
EXTT10=
PLAYORDER=
